<svg width="545" height="845" viewBox="0 0 545 845" fill="none" xmlns="http://www.w3.org/2000/svg">
<path d="M314.104 841.469C305.487 841.469 296.872 841.469 287.632 841.063C278.703 839.91 270.309 839.69 262.116 838.294C248.874 836.036 235.395 834.137 222.698 829.999C208.699 825.437 195.241 818.985 181.959 812.513C165.314 804.402 150.888 793.119 138.6 779.185C137.716 778.184 136.346 777.609 134.38 776.279C134.38 796.214 134.38 814.864 134.199 833.583C133.784 833.796 133.636 834.001 133.116 834.331C91.191 834.407 49.725 834.43 8.25899 834.397C6.73199 834.396 5.20699 833.85 3.70599 833.093C3.74399 828.667 3.76399 824.705 3.76299 820.744C3.75199 549.197 3.73799 277.651 4.18599 6.11202C48.564 6.07602 92.483 6.03302 136.482 6.34202C136.507 7.40702 137.189 364.772 137.505 387.894C137.512 388.462 137.756 389.028 137.995 390.037C141.018 388.7 143.752 387.761 146.218 386.355C159.498 378.78 173.771 373.618 188.5 369.985C200.744 366.965 213.23 364.731 225.724 362.969C238.795 361.125 251.983 359.552 265.157 359.175C277.249 358.828 289.413 359.948 301.504 360.942C313.844 361.954 326.299 362.764 338.403 365.172C355.327 368.538 371.993 373.162 388.032 379.845C392.755 381.813 396.967 385.424 403.052 384.085C419.852 380.386 436.409 375.876 451.853 368.306C466.171 361.288 480.61 354.257 492.47 343.179C497.826 338.174 503.192 333.18 509.506 327.292C510.189 334.461 511.217 340.529 511.246 346.601C511.293 356.447 510.99 366.317 510.253 376.134C509.733 383.068 509.177 390.241 506.984 396.752C503.666 406.604 498.859 415.952 494.825 425.572C494.281 426.87 493.962 428.813 494.542 429.946C500.123 440.872 505.606 451.869 511.731 462.493C519.998 476.829 526.375 491.996 531.004 507.738C537.71 530.541 542.144 553.856 542.227 578.258C542.219 588.06 542.241 597.393 542.23 607.181C541.517 616.765 541.237 625.945 540.051 635.007C538.748 644.96 537.187 654.953 534.672 664.653C532.268 673.923 528.931 683.021 525.215 691.864C520.387 703.351 515.371 714.835 509.373 725.737C500.045 742.689 487.77 757.508 474.179 771.322C462.657 783.032 450.468 793.898 436.638 802.727C420.11 813.28 402.807 822.201 383.854 827.974C365.619 833.528 347.275 837.985 328.246 839.51C323.509 839.888 318.816 840.801 314.104 841.469Z" fill="#0062FF" data-index="0" style="opacity: 1;"></path>
<path d="M264.528 543.932C266.818 549.284 269.07 554.26 271.608 559.869C280.312 536.187 293.239 516.431 313.496 502.342C334.052 488.045 357.138 481.344 382.138 483.417C429.093 487.31 466.475 515.924 478.23 561.184C490.054 606.705 476.043 651.741 437.464 678.415C395.159 707.665 345.495 704.356 304.515 672.24C302.079 676.432 299.681 680.522 297.317 684.631C289.367 698.446 281.414 712.258 273.5 726.093C271.838 729.001 270.417 729.015 268.782 726.078C259.669 709.7 250.491 693.359 241.401 676.969C238.589 671.898 238.092 671.883 233.595 675.307C222.987 683.383 211.33 689.402 198.601 693.62C186.448 697.647 174.107 699.067 161.453 698.368C147.212 697.581 133.759 693.94 120.821 687.765C107.183 681.257 95.562 672.376 86.005 660.803C77.407 650.391 71.249 638.712 66.745 625.866C62.388 613.441 60.685 600.873 61.192 587.949C62.194 562.425 70.74 539.726 87.254 520.041C101.031 503.619 118.459 493.022 138.879 487.206C152.337 483.372 166.004 482.654 180.041 484.001C190.407 484.995 200.182 487.526 209.613 491.382C226.001 498.082 240.006 508.312 250.756 522.458C255.82 529.121 259.941 536.5 264.528 543.932ZM131.567 574.085C127.588 584.352 127.649 594.533 131.652 604.851C138.754 623.156 158.779 633.994 177.783 628.469C201.119 621.685 212.468 600.709 206.401 578.283C200.473 556.368 178.479 545.253 156.266 551.532C144.783 554.777 136.881 562.661 131.567 574.085ZM336.271 577.806C335.235 586.872 334.108 595.906 337.963 604.706C346.314 623.769 364.468 633.825 384.684 628.266C401.793 623.561 416.242 605.693 413.448 583.537C410.419 559.516 384.931 544.427 362.207 551.696C349.428 555.783 341.325 564.751 336.271 577.806Z" fill="white" data-index="1"></path>
</svg>